<svg width="1024" height="1024" viewBox="0 0 1024 1024" fill="none" xmlns="http://www.w3.org/2000/svg">
<path d="M517.965 786.801H549.607V887H517.965V786.801ZM645.978 883.66C641.642 885.535 636.603 886.883 630.86 887.703C625.118 888.523 619.786 888.934 614.864 888.934C598.926 888.934 586.445 884.773 577.421 876.453C568.397 868.132 563.885 855.358 563.885 838.131C563.885 820.552 568.632 807.427 578.124 798.755C587.617 789.965 600.977 785.571 618.204 785.571C626.407 785.571 634.962 786.684 643.869 788.911C643.869 791.254 643.634 794.77 643.166 799.458C642.697 804.028 642.228 807.251 641.759 809.126H630.685C622.598 809.126 616.212 809.302 611.524 809.654C606.953 809.888 604.199 810.415 603.262 811.236C601.504 812.876 600.156 816.216 599.219 821.256C598.281 826.178 597.812 830.924 597.812 835.494C597.812 843.463 598.809 849.616 600.801 853.952C602.793 858.171 605.313 860.983 608.36 862.39C611.29 863.796 616.153 864.499 622.95 864.499C628.341 864.499 635.372 864.03 644.045 863.093L645.978 883.66ZM706.396 889.285C688.934 889.285 675.809 885.184 667.019 876.98C658.347 868.66 654.011 855.358 654.011 837.076C654.011 819.146 658.816 806.079 668.425 797.876C678.035 789.672 690.75 785.571 706.571 785.571C739.854 785.571 756.495 802.153 756.495 835.319C756.495 852.077 752.393 865.261 744.19 874.871C736.104 884.48 723.505 889.285 706.396 889.285ZM705.692 868.542C708.974 868.542 711.728 868.015 713.954 866.96C716.181 865.788 717.939 863.796 719.228 860.983C721.689 856.179 722.92 848.327 722.92 837.428C722.92 826.764 721.689 819.029 719.228 814.224C716.767 809.302 712.255 806.724 705.692 806.489C703.231 806.489 700.653 806.782 697.958 807.368C695.38 807.837 693.739 808.54 693.036 809.478C691.629 811.118 690.516 814.634 689.696 820.025C688.993 825.299 688.641 831.1 688.641 837.428C688.641 847.272 689.579 854.479 691.454 859.05C692.743 862.448 694.559 864.909 696.903 866.433C699.247 867.839 702.177 868.542 705.692 868.542ZM799.84 846.569V887H770.484V786.801H800.192L826.736 827.232C830.72 833.209 833.767 838.248 835.877 842.35H836.404V825.474V786.801H865.585V887H835.701L808.454 844.811L800.543 832.857H800.016L799.84 846.569ZM911.755 813.872C911.755 816.333 912.986 818.267 915.447 819.673C918.025 821.08 922.009 822.603 927.4 824.244C933.846 826.353 939.119 828.404 943.221 830.396C947.44 832.389 951.073 835.494 954.12 839.713C957.284 843.932 958.866 849.44 958.866 856.237C958.866 878.035 944.686 888.934 916.326 888.934C911.638 888.934 905.895 888.523 899.098 887.703C892.418 886.883 886.324 885.828 880.816 884.539C881.051 882.078 881.52 878.504 882.223 873.816C883.043 869.011 883.805 865.437 884.508 863.093C888.61 863.679 894.762 864.382 902.966 865.202C911.286 866.023 917.556 866.433 921.775 866.433C924.236 866.433 925.701 866.257 926.17 865.906C926.873 865.437 927.4 864.675 927.752 863.62C928.22 862.448 928.455 861.452 928.455 860.632C928.455 858.288 927.342 856.53 925.115 855.358C922.888 854.069 919.08 852.546 913.689 850.788C907.243 848.796 901.911 846.745 897.692 844.635C893.473 842.526 889.782 839.244 886.617 834.791C883.453 830.338 881.871 824.478 881.871 817.212C881.871 812.056 883.043 807.017 885.387 802.095C887.731 797.055 890.133 793.657 892.594 791.899C894.469 790.61 898.337 789.379 904.196 788.207C910.056 787.036 915.564 786.45 920.72 786.45C933.846 786.45 944.569 787.68 952.889 790.141C952.772 792.485 952.362 795.708 951.659 799.809C951.073 803.911 950.428 807.661 949.725 811.06L945.682 810.884C930.447 809.829 920.72 809.302 916.501 809.302C914.743 809.302 913.747 809.361 913.513 809.478C913.044 809.712 912.634 810.24 912.282 811.06C911.931 811.88 911.755 812.818 911.755 813.872Z" fill="#191000"/>
<path d="M161.332 831.451V881.551C153.48 884.129 146.038 886.004 139.007 887.176C131.975 888.348 126.057 888.934 121.252 888.934C105.314 888.934 92.833 884.773 83.8093 876.453C74.7855 868.132 70.2736 855.358 70.2736 838.131C70.2736 820.552 75.0199 807.427 84.5124 798.755C94.0049 789.965 107.365 785.571 124.592 785.571C133.616 785.571 144.456 786.918 157.113 789.614C157.113 791.958 156.878 795.473 156.409 800.161C155.941 804.731 155.472 807.954 155.003 809.829L148.675 809.654C140.94 809.419 134.905 809.302 130.569 809.302C117.56 809.302 110.47 810.064 109.298 811.587C107.423 813.814 106.076 817.271 105.255 821.959C104.552 826.646 104.201 831.158 104.201 835.494C104.201 843.346 105.08 849.44 106.837 853.776C108.595 858.112 111.291 861.159 114.924 862.917C118.557 864.675 123.479 865.554 129.69 865.554H130.393V831.451H161.332ZM175.396 786.801H248.348V807.896H207.038V826.178H241.843V845.163H207.038V865.554H248.172V887H175.396V786.801ZM291.122 846.569V887H261.765V786.801H291.473L318.017 827.232C322.002 833.209 325.049 838.248 327.158 842.35H327.685V825.474V786.801H356.866V887H326.982L299.735 844.811L291.825 832.857H291.297L291.122 846.569ZM373.328 786.801H446.28V807.896H404.97V826.178H439.776V845.163H404.97V865.554H446.104V887H373.328V786.801Z" fill="#191000"/>
<rect x="81.4069" y="140.14" width="873.077" height="573.774" rx="40.5171" fill="#FFC42B"/>
<path d="M81.4069 227.709H954.484V673.397C954.484 695.774 936.344 713.914 913.967 713.914H121.924C99.547 713.914 81.4069 695.774 81.4069 673.397V227.709Z" fill="#383838"/>
<path d="M81.4069 240.779H602.901C797.075 240.779 954.484 398.189 954.484 592.363V673.397C954.484 695.774 936.344 713.914 913.967 713.914H121.924C99.547 713.914 81.4069 695.774 81.4069 673.397V240.779Z" fill="#FFB11A"/>
<g filter="url(#filter0_d_1_175)">
<mask id="path-6-outside-1_1_175" maskUnits="userSpaceOnUse" x="500.261" y="288.445" width="260" height="282" fill="black">
<rect fill="white" x="500.261" y="288.445" width="260" height="282"/>
<path d="M592.639 350.13C556.352 343.521 527.659 350.438 516.224 370.245C507.691 385.025 510.13 404.621 522.141 425.567C522.378 426.002 522.699 426.385 523.087 426.695C523.474 427.004 523.919 427.232 524.396 427.367C524.873 427.502 525.371 427.54 525.863 427.479C526.355 427.419 526.83 427.261 527.26 427.014C527.689 426.768 528.066 426.438 528.366 426.044C528.667 425.65 528.886 425.2 529.01 424.721C529.135 424.241 529.162 423.741 529.091 423.251C529.02 422.761 528.851 422.29 528.596 421.865C517.778 402.996 515.673 386.085 522.669 373.966C532.169 357.513 557.761 351.342 591.305 357.452C592.269 357.612 593.258 357.387 594.057 356.825C594.857 356.263 595.403 355.409 595.578 354.448C595.753 353.486 595.543 352.495 594.993 351.687C594.444 350.879 593.598 350.32 592.639 350.13ZM541.011 451.028C555.683 467.152 574.746 482.277 596.487 494.827C649.126 525.219 705.165 533.342 732.783 514.511C733.197 514.239 733.551 513.889 733.828 513.479C734.104 513.069 734.295 512.608 734.391 512.123C734.487 511.638 734.486 511.139 734.387 510.655C734.288 510.171 734.094 509.711 733.815 509.303C733.537 508.895 733.18 508.546 732.765 508.277C732.35 508.008 731.886 507.825 731.4 507.737C730.913 507.65 730.415 507.66 729.932 507.767C729.45 507.875 728.994 508.077 728.59 508.362C703.872 525.216 650.64 517.5 600.208 488.383C579.118 476.207 560.658 461.56 546.516 446.018C546.187 445.655 545.79 445.359 545.348 445.15C544.905 444.94 544.425 444.819 543.936 444.795C543.446 444.771 542.957 444.844 542.496 445.01C542.035 445.175 541.611 445.43 541.249 445.76C540.886 446.09 540.593 446.488 540.384 446.931C540.176 447.375 540.058 447.855 540.036 448.344C540.013 448.834 540.088 449.323 540.256 449.783C540.423 450.244 540.679 450.667 541.011 451.028Z"/>
<path d="M723.973 446.501C747.734 418.431 756.03 390.199 744.618 370.434C736.222 355.89 718.471 348.211 694.878 347.904C693.901 347.906 692.963 348.292 692.268 348.979C691.572 349.666 691.175 350.6 691.163 351.578C691.15 352.555 691.523 353.499 692.2 354.204C692.877 354.909 693.805 355.319 694.782 355.346C715.999 355.622 731.293 362.238 738.174 374.156C747.652 390.573 740.253 415.749 718.292 441.693C717.97 442.065 717.725 442.497 717.571 442.965C717.417 443.432 717.357 443.925 717.395 444.416C717.433 444.907 717.568 445.385 717.792 445.824C718.016 446.262 718.325 446.651 718.701 446.969C719.077 447.287 719.512 447.528 719.981 447.676C720.45 447.825 720.944 447.879 721.435 447.836C721.925 447.792 722.402 447.652 722.837 447.423C723.273 447.194 723.659 446.88 723.973 446.501ZM662.908 351.369C641.424 355.972 618.556 364.973 596.595 377.652C542.255 409.025 506.808 455.287 511.731 488.831C511.796 489.319 511.958 489.789 512.207 490.214C512.456 490.64 512.786 491.011 513.18 491.307C513.573 491.604 514.021 491.819 514.499 491.941C514.976 492.063 515.473 492.089 515.96 492.017C516.447 491.945 516.915 491.778 517.337 491.524C517.76 491.27 518.127 490.935 518.419 490.538C518.71 490.141 518.92 489.69 519.036 489.211C519.152 488.733 519.172 488.236 519.094 487.749C514.722 457.966 548.324 414.115 600.317 384.097C621.621 371.796 643.763 363.082 664.467 358.646C664.951 358.551 665.412 358.36 665.822 358.084C666.232 357.809 666.583 357.455 666.855 357.042C667.127 356.63 667.313 356.168 667.405 355.682C667.496 355.197 667.49 354.698 667.386 354.215C667.283 353.732 667.084 353.275 666.802 352.869C666.52 352.464 666.16 352.119 665.744 351.854C665.327 351.589 664.861 351.41 664.375 351.326C663.888 351.243 663.389 351.258 662.908 351.369Z"/>
<path d="M574.873 512.085C587.298 546.775 607.622 568.135 630.476 568.135C647.144 568.135 662.565 556.772 674.591 536.769C674.851 536.35 675.025 535.883 675.104 535.396C675.182 534.909 675.163 534.412 675.047 533.932C674.931 533.453 674.721 533.001 674.429 532.603C674.138 532.205 673.77 531.87 673.347 531.616C672.924 531.362 672.455 531.194 671.967 531.123C671.479 531.051 670.981 531.078 670.504 531.201C670.026 531.323 669.577 531.54 669.184 531.837C668.79 532.135 668.46 532.508 668.212 532.934C657.405 550.911 644.13 560.692 630.476 560.692C611.491 560.692 593.364 541.642 581.881 509.578C581.724 509.108 581.474 508.675 581.147 508.303C580.82 507.931 580.423 507.628 579.977 507.412C579.532 507.196 579.048 507.071 578.553 507.044C578.059 507.017 577.564 507.089 577.098 507.256C576.632 507.423 576.204 507.681 575.838 508.015C575.473 508.35 575.179 508.754 574.972 509.204C574.764 509.653 574.649 510.14 574.633 510.635C574.616 511.13 574.697 511.623 574.873 512.085ZM688.351 505.3C694.784 484.748 698.237 461.04 698.237 436.334C698.237 374.686 676.66 321.543 645.927 307.898C645.03 307.522 644.02 307.512 643.116 307.872C642.211 308.231 641.483 308.931 641.088 309.82C640.693 310.71 640.663 311.719 641.003 312.631C641.343 313.543 642.027 314.285 642.908 314.699C670.318 326.871 690.794 377.305 690.794 436.334C690.794 460.303 687.449 483.262 681.25 503.077C681.096 503.545 681.036 504.04 681.075 504.531C681.114 505.023 681.25 505.502 681.475 505.941C681.701 506.379 682.011 506.769 682.389 507.086C682.766 507.404 683.203 507.643 683.673 507.791C684.144 507.938 684.639 507.99 685.13 507.944C685.622 507.899 686.099 507.756 686.534 507.524C686.969 507.292 687.354 506.976 687.666 506.594C687.978 506.212 688.21 505.772 688.351 505.3ZM758.434 501.655C758.434 491.818 750.461 483.845 740.624 483.845C730.788 483.845 722.815 491.818 722.815 501.655C722.815 511.491 730.788 519.464 740.624 519.464C750.461 519.464 758.434 511.491 758.434 501.655ZM750.992 501.655C750.992 503.016 750.724 504.364 750.203 505.622C749.682 506.88 748.918 508.023 747.956 508.986C746.993 509.949 745.85 510.712 744.592 511.233C743.334 511.754 741.986 512.023 740.624 512.023C739.263 512.023 737.915 511.754 736.657 511.233C735.399 510.712 734.256 509.949 733.293 508.986C732.33 508.023 731.567 506.88 731.046 505.622C730.525 504.364 730.256 503.016 730.256 501.655C730.256 498.905 731.349 496.268 733.293 494.324C735.237 492.379 737.875 491.287 740.624 491.287C743.374 491.287 746.011 492.379 747.956 494.324C749.9 496.268 750.992 498.905 750.992 501.655ZM520.071 519.464C529.909 519.464 537.882 511.491 537.882 501.655C537.882 491.818 529.907 483.845 520.071 483.845C510.236 483.845 502.261 491.818 502.261 501.655C502.261 511.491 510.236 519.464 520.071 519.464ZM520.071 512.023C517.321 512.023 514.684 510.93 512.74 508.986C510.796 507.042 509.703 504.404 509.703 501.655C509.703 498.905 510.796 496.268 512.74 494.324C514.684 492.379 517.321 491.287 520.071 491.287C522.821 491.287 525.458 492.379 527.402 494.324C529.347 496.268 530.439 498.905 530.439 501.655C530.439 504.404 529.347 507.042 527.402 508.986C525.458 510.93 522.821 512.023 520.071 512.023Z"/>
<path d="M630.476 326.065C640.312 326.065 648.286 318.091 648.286 308.255C648.286 298.419 640.312 290.445 630.476 290.445C620.64 290.445 612.666 298.419 612.666 308.255C612.666 318.091 620.64 326.065 630.476 326.065ZM630.476 318.623C627.726 318.623 625.089 317.53 623.145 315.586C621.2 313.642 620.108 311.005 620.108 308.255C620.108 305.505 621.2 302.868 623.145 300.924C625.089 298.979 627.726 297.887 630.476 297.887C633.226 297.887 635.863 298.979 637.807 300.924C639.752 302.868 640.844 305.505 640.844 308.255C640.844 311.005 639.752 313.642 637.807 315.586C635.863 317.53 633.226 318.623 630.476 318.623ZM633.196 448.929C626.24 450.432 619.387 446.011 617.881 439.055C617.16 435.715 617.795 432.225 619.647 429.353C621.498 426.481 624.415 424.461 627.755 423.739C634.711 422.236 641.564 426.657 643.071 433.613C644.574 440.569 640.153 447.423 633.196 448.929Z"/>
</mask>
<path d="M592.639 350.13C556.352 343.521 527.659 350.438 516.224 370.245C507.691 385.025 510.13 404.621 522.141 425.567C522.378 426.002 522.699 426.385 523.087 426.695C523.474 427.004 523.919 427.232 524.396 427.367C524.873 427.502 525.371 427.54 525.863 427.479C526.355 427.419 526.83 427.261 527.26 427.014C527.689 426.768 528.066 426.438 528.366 426.044C528.667 425.65 528.886 425.2 529.01 424.721C529.135 424.241 529.162 423.741 529.091 423.251C529.02 422.761 528.851 422.29 528.596 421.865C517.778 402.996 515.673 386.085 522.669 373.966C532.169 357.513 557.761 351.342 591.305 357.452C592.269 357.612 593.258 357.387 594.057 356.825C594.857 356.263 595.403 355.409 595.578 354.448C595.753 353.486 595.543 352.495 594.993 351.687C594.444 350.879 593.598 350.32 592.639 350.13ZM541.011 451.028C555.683 467.152 574.746 482.277 596.487 494.827C649.126 525.219 705.165 533.342 732.783 514.511C733.197 514.239 733.551 513.889 733.828 513.479C734.104 513.069 734.295 512.608 734.391 512.123C734.487 511.638 734.486 511.139 734.387 510.655C734.288 510.171 734.094 509.711 733.815 509.303C733.537 508.895 733.18 508.546 732.765 508.277C732.35 508.008 731.886 507.825 731.4 507.737C730.913 507.65 730.415 507.66 729.932 507.767C729.45 507.875 728.994 508.077 728.59 508.362C703.872 525.216 650.64 517.5 600.208 488.383C579.118 476.207 560.658 461.56 546.516 446.018C546.187 445.655 545.79 445.359 545.348 445.15C544.905 444.94 544.425 444.819 543.936 444.795C543.446 444.771 542.957 444.844 542.496 445.01C542.035 445.175 541.611 445.43 541.249 445.76C540.886 446.09 540.593 446.488 540.384 446.931C540.176 447.375 540.058 447.855 540.036 448.344C540.013 448.834 540.088 449.323 540.256 449.783C540.423 450.244 540.679 450.667 541.011 451.028Z" fill="#191000"/>
<path d="M723.973 446.501C747.734 418.431 756.03 390.199 744.618 370.434C736.222 355.89 718.471 348.211 694.878 347.904C693.901 347.906 692.963 348.292 692.268 348.979C691.572 349.666 691.175 350.6 691.163 351.578C691.15 352.555 691.523 353.499 692.2 354.204C692.877 354.909 693.805 355.319 694.782 355.346C715.999 355.622 731.293 362.238 738.174 374.156C747.652 390.573 740.253 415.749 718.292 441.693C717.97 442.065 717.725 442.497 717.571 442.965C717.417 443.432 717.357 443.925 717.395 444.416C717.433 444.907 717.568 445.385 717.792 445.824C718.016 446.262 718.325 446.651 718.701 446.969C719.077 447.287 719.512 447.528 719.981 447.676C720.45 447.825 720.944 447.879 721.435 447.836C721.925 447.792 722.402 447.652 722.837 447.423C723.273 447.194 723.659 446.88 723.973 446.501ZM662.908 351.369C641.424 355.972 618.556 364.973 596.595 377.652C542.255 409.025 506.808 455.287 511.731 488.831C511.796 489.319 511.958 489.789 512.207 490.214C512.456 490.64 512.786 491.011 513.18 491.307C513.573 491.604 514.021 491.819 514.499 491.941C514.976 492.063 515.473 492.089 515.96 492.017C516.447 491.945 516.915 491.778 517.337 491.524C517.76 491.27 518.127 490.935 518.419 490.538C518.71 490.141 518.92 489.69 519.036 489.211C519.152 488.733 519.172 488.236 519.094 487.749C514.722 457.966 548.324 414.115 600.317 384.097C621.621 371.796 643.763 363.082 664.467 358.646C664.951 358.551 665.412 358.36 665.822 358.084C666.232 357.809 666.583 357.455 666.855 357.042C667.127 356.63 667.313 356.168 667.405 355.682C667.496 355.197 667.49 354.698 667.386 354.215C667.283 353.732 667.084 353.275 666.802 352.869C666.52 352.464 666.16 352.119 665.744 351.854C665.327 351.589 664.861 351.41 664.375 351.326C663.888 351.243 663.389 351.258 662.908 351.369Z" fill="#191000"/>
<path d="M574.873 512.085C587.298 546.775 607.622 568.135 630.476 568.135C647.144 568.135 662.565 556.772 674.591 536.769C674.851 536.35 675.025 535.883 675.104 535.396C675.182 534.909 675.163 534.412 675.047 533.932C674.931 533.453 674.721 533.001 674.429 532.603C674.138 532.205 673.77 531.87 673.347 531.616C672.924 531.362 672.455 531.194 671.967 531.123C671.479 531.051 670.981 531.078 670.504 531.201C670.026 531.323 669.577 531.54 669.184 531.837C668.79 532.135 668.46 532.508 668.212 532.934C657.405 550.911 644.13 560.692 630.476 560.692C611.491 560.692 593.364 541.642 581.881 509.578C581.724 509.108 581.474 508.675 581.147 508.303C580.82 507.931 580.423 507.628 579.977 507.412C579.532 507.196 579.048 507.071 578.553 507.044C578.059 507.017 577.564 507.089 577.098 507.256C576.632 507.423 576.204 507.681 575.838 508.015C575.473 508.35 575.179 508.754 574.972 509.204C574.764 509.653 574.649 510.14 574.633 510.635C574.616 511.13 574.697 511.623 574.873 512.085ZM688.351 505.3C694.784 484.748 698.237 461.04 698.237 436.334C698.237 374.686 676.66 321.543 645.927 307.898C645.03 307.522 644.02 307.512 643.116 307.872C642.211 308.231 641.483 308.931 641.088 309.82C640.693 310.71 640.663 311.719 641.003 312.631C641.343 313.543 642.027 314.285 642.908 314.699C670.318 326.871 690.794 377.305 690.794 436.334C690.794 460.303 687.449 483.262 681.25 503.077C681.096 503.545 681.036 504.04 681.075 504.531C681.114 505.023 681.25 505.502 681.475 505.941C681.701 506.379 682.011 506.769 682.389 507.086C682.766 507.404 683.203 507.643 683.673 507.791C684.144 507.938 684.639 507.99 685.13 507.944C685.622 507.899 686.099 507.756 686.534 507.524C686.969 507.292 687.354 506.976 687.666 506.594C687.978 506.212 688.21 505.772 688.351 505.3ZM758.434 501.655C758.434 491.818 750.461 483.845 740.624 483.845C730.788 483.845 722.815 491.818 722.815 501.655C722.815 511.491 730.788 519.464 740.624 519.464C750.461 519.464 758.434 511.491 758.434 501.655ZM750.992 501.655C750.992 503.016 750.724 504.364 750.203 505.622C749.682 506.88 748.918 508.023 747.956 508.986C746.993 509.949 745.85 510.712 744.592 511.233C743.334 511.754 741.986 512.023 740.624 512.023C739.263 512.023 737.915 511.754 736.657 511.233C735.399 510.712 734.256 509.949 733.293 508.986C732.33 508.023 731.567 506.88 731.046 505.622C730.525 504.364 730.256 503.016 730.256 501.655C730.256 498.905 731.349 496.268 733.293 494.324C735.237 492.379 737.875 491.287 740.624 491.287C743.374 491.287 746.011 492.379 747.956 494.324C749.9 496.268 750.992 498.905 750.992 501.655ZM520.071 519.464C529.909 519.464 537.882 511.491 537.882 501.655C537.882 491.818 529.907 483.845 520.071 483.845C510.236 483.845 502.261 491.818 502.261 501.655C502.261 511.491 510.236 519.464 520.071 519.464ZM520.071 512.023C517.321 512.023 514.684 510.93 512.74 508.986C510.796 507.042 509.703 504.404 509.703 501.655C509.703 498.905 510.796 496.268 512.74 494.324C514.684 492.379 517.321 491.287 520.071 491.287C522.821 491.287 525.458 492.379 527.402 494.324C529.347 496.268 530.439 498.905 530.439 501.655C530.439 504.404 529.347 507.042 527.402 508.986C525.458 510.93 522.821 512.023 520.071 512.023Z" fill="#191000"/>
<path d="M630.476 326.065C640.312 326.065 648.286 318.091 648.286 308.255C648.286 298.419 640.312 290.445 630.476 290.445C620.64 290.445 612.666 298.419 612.666 308.255C612.666 318.091 620.64 326.065 630.476 326.065ZM630.476 318.623C627.726 318.623 625.089 317.53 623.145 315.586C621.2 313.642 620.108 311.005 620.108 308.255C620.108 305.505 621.2 302.868 623.145 300.924C625.089 298.979 627.726 297.887 630.476 297.887C633.226 297.887 635.863 298.979 637.807 300.924C639.752 302.868 640.844 305.505 640.844 308.255C640.844 311.005 639.752 313.642 637.807 315.586C635.863 317.53 633.226 318.623 630.476 318.623ZM633.196 448.929C626.24 450.432 619.387 446.011 617.881 439.055C617.16 435.715 617.795 432.225 619.647 429.353C621.498 426.481 624.415 424.461 627.755 423.739C634.711 422.236 641.564 426.657 643.071 433.613C644.574 440.569 640.153 447.423 633.196 448.929Z" fill="#191000"/>
<path d="M592.639 350.13C556.352 343.521 527.659 350.438 516.224 370.245C507.691 385.025 510.13 404.621 522.141 425.567C522.378 426.002 522.699 426.385 523.087 426.695C523.474 427.004 523.919 427.232 524.396 427.367C524.873 427.502 525.371 427.54 525.863 427.479C526.355 427.419 526.83 427.261 527.26 427.014C527.689 426.768 528.066 426.438 528.366 426.044C528.667 425.65 528.886 425.2 529.01 424.721C529.135 424.241 529.162 423.741 529.091 423.251C529.02 422.761 528.851 422.29 528.596 421.865C517.778 402.996 515.673 386.085 522.669 373.966C532.169 357.513 557.761 351.342 591.305 357.452C592.269 357.612 593.258 357.387 594.057 356.825C594.857 356.263 595.403 355.409 595.578 354.448C595.753 353.486 595.543 352.495 594.993 351.687C594.444 350.879 593.598 350.32 592.639 350.13ZM541.011 451.028C555.683 467.152 574.746 482.277 596.487 494.827C649.126 525.219 705.165 533.342 732.783 514.511C733.197 514.239 733.551 513.889 733.828 513.479C734.104 513.069 734.295 512.608 734.391 512.123C734.487 511.638 734.486 511.139 734.387 510.655C734.288 510.171 734.094 509.711 733.815 509.303C733.537 508.895 733.18 508.546 732.765 508.277C732.35 508.008 731.886 507.825 731.4 507.737C730.913 507.65 730.415 507.66 729.932 507.767C729.45 507.875 728.994 508.077 728.59 508.362C703.872 525.216 650.64 517.5 600.208 488.383C579.118 476.207 560.658 461.56 546.516 446.018C546.187 445.655 545.79 445.359 545.348 445.15C544.905 444.94 544.425 444.819 543.936 444.795C543.446 444.771 542.957 444.844 542.496 445.01C542.035 445.175 541.611 445.43 541.249 445.76C540.886 446.09 540.593 446.488 540.384 446.931C540.176 447.375 540.058 447.855 540.036 448.344C540.013 448.834 540.088 449.323 540.256 449.783C540.423 450.244 540.679 450.667 541.011 451.028Z" stroke="#6F3838" stroke-width="3.14736" mask="url(#path-6-outside-1_1_175)"/>
<path d="M723.973 446.501C747.734 418.431 756.03 390.199 744.618 370.434C736.222 355.89 718.471 348.211 694.878 347.904C693.901 347.906 692.963 348.292 692.268 348.979C691.572 349.666 691.175 350.6 691.163 351.578C691.15 352.555 691.523 353.499 692.2 354.204C692.877 354.909 693.805 355.319 694.782 355.346C715.999 355.622 731.293 362.238 738.174 374.156C747.652 390.573 740.253 415.749 718.292 441.693C717.97 442.065 717.725 442.497 717.571 442.965C717.417 443.432 717.357 443.925 717.395 444.416C717.433 444.907 717.568 445.385 717.792 445.824C718.016 446.262 718.325 446.651 718.701 446.969C719.077 447.287 719.512 447.528 719.981 447.676C720.45 447.825 720.944 447.879 721.435 447.836C721.925 447.792 722.402 447.652 722.837 447.423C723.273 447.194 723.659 446.88 723.973 446.501ZM662.908 351.369C641.424 355.972 618.556 364.973 596.595 377.652C542.255 409.025 506.808 455.287 511.731 488.831C511.796 489.319 511.958 489.789 512.207 490.214C512.456 490.64 512.786 491.011 513.18 491.307C513.573 491.604 514.021 491.819 514.499 491.941C514.976 492.063 515.473 492.089 515.96 492.017C516.447 491.945 516.915 491.778 517.337 491.524C517.76 491.27 518.127 490.935 518.419 490.538C518.71 490.141 518.92 489.69 519.036 489.211C519.152 488.733 519.172 488.236 519.094 487.749C514.722 457.966 548.324 414.115 600.317 384.097C621.621 371.796 643.763 363.082 664.467 358.646C664.951 358.551 665.412 358.36 665.822 358.084C666.232 357.809 666.583 357.455 666.855 357.042C667.127 356.63 667.313 356.168 667.405 355.682C667.496 355.197 667.49 354.698 667.386 354.215C667.283 353.732 667.084 353.275 666.802 352.869C666.52 352.464 666.16 352.119 665.744 351.854C665.327 351.589 664.861 351.41 664.375 351.326C663.888 351.243 663.389 351.258 662.908 351.369Z" stroke="#6F3838" stroke-width="3.14736" mask="url(#path-6-outside-1_1_175)"/>
<path d="M574.873 512.085C587.298 546.775 607.622 568.135 630.476 568.135C647.144 568.135 662.565 556.772 674.591 536.769C674.851 536.35 675.025 535.883 675.104 535.396C675.182 534.909 675.163 534.412 675.047 533.932C674.931 533.453 674.721 533.001 674.429 532.603C674.138 532.205 673.77 531.87 673.347 531.616C672.924 531.362 672.455 531.194 671.967 531.123C671.479 531.051 670.981 531.078 670.504 531.201C670.026 531.323 669.577 531.54 669.184 531.837C668.79 532.135 668.46 532.508 668.212 532.934C657.405 550.911 644.13 560.692 630.476 560.692C611.491 560.692 593.364 541.642 581.881 509.578C581.724 509.108 581.474 508.675 581.147 508.303C580.82 507.931 580.423 507.628 579.977 507.412C579.532 507.196 579.048 507.071 578.553 507.044C578.059 507.017 577.564 507.089 577.098 507.256C576.632 507.423 576.204 507.681 575.838 508.015C575.473 508.35 575.179 508.754 574.972 509.204C574.764 509.653 574.649 510.14 574.633 510.635C574.616 511.13 574.697 511.623 574.873 512.085ZM688.351 505.3C694.784 484.748 698.237 461.04 698.237 436.334C698.237 374.686 676.66 321.543 645.927 307.898C645.03 307.522 644.02 307.512 643.116 307.872C642.211 308.231 641.483 308.931 641.088 309.82C640.693 310.71 640.663 311.719 641.003 312.631C641.343 313.543 642.027 314.285 642.908 314.699C670.318 326.871 690.794 377.305 690.794 436.334C690.794 460.303 687.449 483.262 681.25 503.077C681.096 503.545 681.036 504.04 681.075 504.531C681.114 505.023 681.25 505.502 681.475 505.941C681.701 506.379 682.011 506.769 682.389 507.086C682.766 507.404 683.203 507.643 683.673 507.791C684.144 507.938 684.639 507.99 685.13 507.944C685.622 507.899 686.099 507.756 686.534 507.524C686.969 507.292 687.354 506.976 687.666 506.594C687.978 506.212 688.21 505.772 688.351 505.3ZM758.434 501.655C758.434 491.818 750.461 483.845 740.624 483.845C730.788 483.845 722.815 491.818 722.815 501.655C722.815 511.491 730.788 519.464 740.624 519.464C750.461 519.464 758.434 511.491 758.434 501.655ZM750.992 501.655C750.992 503.016 750.724 504.364 750.203 505.622C749.682 506.88 748.918 508.023 747.956 508.986C746.993 509.949 745.85 510.712 744.592 511.233C743.334 511.754 741.986 512.023 740.624 512.023C739.263 512.023 737.915 511.754 736.657 511.233C735.399 510.712 734.256 509.949 733.293 508.986C732.33 508.023 731.567 506.88 731.046 505.622C730.525 504.364 730.256 503.016 730.256 501.655C730.256 498.905 731.349 496.268 733.293 494.324C735.237 492.379 737.875 491.287 740.624 491.287C743.374 491.287 746.011 492.379 747.956 494.324C749.9 496.268 750.992 498.905 750.992 501.655ZM520.071 519.464C529.909 519.464 537.882 511.491 537.882 501.655C537.882 491.818 529.907 483.845 520.071 483.845C510.236 483.845 502.261 491.818 502.261 501.655C502.261 511.491 510.236 519.464 520.071 519.464ZM520.071 512.023C517.321 512.023 514.684 510.93 512.74 508.986C510.796 507.042 509.703 504.404 509.703 501.655C509.703 498.905 510.796 496.268 512.74 494.324C514.684 492.379 517.321 491.287 520.071 491.287C522.821 491.287 525.458 492.379 527.402 494.324C529.347 496.268 530.439 498.905 530.439 501.655C530.439 504.404 529.347 507.042 527.402 508.986C525.458 510.93 522.821 512.023 520.071 512.023Z" stroke="#6F3838" stroke-width="3.14736" mask="url(#path-6-outside-1_1_175)"/>
<path d="M630.476 326.065C640.312 326.065 648.286 318.091 648.286 308.255C648.286 298.419 640.312 290.445 630.476 290.445C620.64 290.445 612.666 298.419 612.666 308.255C612.666 318.091 620.64 326.065 630.476 326.065ZM630.476 318.623C627.726 318.623 625.089 317.53 623.145 315.586C621.2 313.642 620.108 311.005 620.108 308.255C620.108 305.505 621.2 302.868 623.145 300.924C625.089 298.979 627.726 297.887 630.476 297.887C633.226 297.887 635.863 298.979 637.807 300.924C639.752 302.868 640.844 305.505 640.844 308.255C640.844 311.005 639.752 313.642 637.807 315.586C635.863 317.53 633.226 318.623 630.476 318.623ZM633.196 448.929C626.24 450.432 619.387 446.011 617.881 439.055C617.16 435.715 617.795 432.225 619.647 429.353C621.498 426.481 624.415 424.461 627.755 423.739C634.711 422.236 641.564 426.657 643.071 433.613C644.574 440.569 640.153 447.423 633.196 448.929Z" stroke="#6F3838" stroke-width="3.14736" mask="url(#path-6-outside-1_1_175)"/>
</g>
<path d="M81.4069 273.454H95.7839C105.89 273.454 114.082 281.647 114.082 291.752V577.986C114.082 588.091 105.89 596.284 95.7839 596.284H81.4069V273.454Z" fill="#191000"/>
<path d="M300.983 713.914L300.983 721.756C300.983 731.862 292.791 740.054 282.685 740.054L210.8 740.054C200.694 740.054 192.502 731.862 192.502 721.756L192.502 713.914L300.983 713.914Z" fill="#191000"/>
<path d="M300.983 713.914L300.983 721.756C300.983 731.862 292.791 740.054 282.685 740.054L210.8 740.054C200.694 740.054 192.502 731.862 192.502 721.756L192.502 713.914L300.983 713.914Z" fill="#715017"/>
<path d="M609.436 140.14L609.436 132.298C609.436 122.192 617.628 114 627.734 114L825.091 114C835.197 114 843.389 122.192 843.389 132.298L843.389 140.14L609.436 140.14Z" fill="#191000"/>
<path d="M843.389 713.914L843.389 721.756C843.389 731.862 835.197 740.054 825.091 740.054L753.206 740.054C743.1 740.054 734.908 731.862 734.908 721.756L734.908 713.914L843.389 713.914Z" fill="#715017"/>
<path d="M954.484 596.284L940.107 596.284C930.002 596.284 921.809 588.091 921.809 577.986L921.809 291.752C921.809 281.647 930.002 273.454 940.107 273.454L954.484 273.454L954.484 596.284Z" fill="#383838"/>
<circle cx="131.073" cy="189.806" r="16.991" fill="#E78D01"/>
<circle cx="131.073" cy="189.806" r="16.991" fill="#E78D01"/>
<circle cx="131.073" cy="189.806" r="16.991" fill="#E78D01"/>
<circle cx="904.818" cy="189.806" r="16.991" fill="#E78D01"/>
<circle cx="904.818" cy="664.248" r="16.991" fill="#E78D01"/>
<circle cx="131.073" cy="664.248" r="16.991" fill="#E78D01"/>
<rect x="174.204" y="298.287" width="267.935" height="13.07" fill="#A46C00"/>
<rect x="174.204" y="298.287" width="267.935" height="13.07" fill="#A46C00"/>
<rect x="174.204" y="298.287" width="267.935" height="13.07" fill="#A46C00"/>
<rect x="174.204" y="298.287" width="267.935" height="13.07" fill="#A46C00"/>
<rect x="174.204" y="323.12" width="267.935" height="13.07" fill="#A46C00"/>
<rect x="174.204" y="323.12" width="267.935" height="13.07" fill="#A46C00"/>
<rect x="174.204" y="323.12" width="267.935" height="13.07" fill="#A46C00"/>
<rect x="174.204" y="323.12" width="267.935" height="13.07" fill="#A46C00"/>
<rect x="174.204" y="347.953" width="267.935" height="13.07" fill="#A46C00"/>
<rect x="174.204" y="347.953" width="267.935" height="13.07" fill="#A46C00"/>
<rect x="174.204" y="347.953" width="267.935" height="13.07" fill="#A46C00"/>
<rect x="174.204" y="347.953" width="267.935" height="13.07" fill="#A46C00"/>
<rect x="174.204" y="372.786" width="267.935" height="13.07" fill="#A46C00"/>
<rect x="174.204" y="372.786" width="267.935" height="13.07" fill="#A46C00"/>
<rect x="174.204" y="372.786" width="267.935" height="13.07" fill="#A46C00"/>
<rect x="174.204" y="372.786" width="267.935" height="13.07" fill="#A46C00"/>
<rect x="174.204" y="397.619" width="267.935" height="13.07" fill="#A46C00"/>
<rect x="174.204" y="397.619" width="267.935" height="13.07" fill="#A46C00"/>
<rect x="174.204" y="397.619" width="267.935" height="13.07" fill="#A46C00"/>
<rect x="174.204" y="397.619" width="267.935" height="13.07" fill="#A46C00"/>
<rect x="174.204" y="422.452" width="267.935" height="13.07" fill="#A46C00"/>
<rect x="174.204" y="422.452" width="267.935" height="13.07" fill="#A46C00"/>
<rect x="174.204" y="422.452" width="267.935" height="13.07" fill="#A46C00"/>
<rect x="174.204" y="422.452" width="267.935" height="13.07" fill="#A46C00"/>
<rect x="862.994" y="436" width="161.591" height="13.07" transform="rotate(90 862.994 436)" fill="#A46C00"/>
<rect x="862.994" y="436" width="161.591" height="13.07" transform="rotate(90 862.994 436)" fill="#A46C00"/>
<rect x="862.994" y="436" width="161.591" height="13.07" transform="rotate(90 862.994 436)" fill="#A46C00"/>
<rect x="862.994" y="436" width="161.591" height="13.07" transform="rotate(90 862.994 436)" fill="#A46C00"/>
<rect x="838.161" y="436" width="161.591" height="13.07" transform="rotate(90 838.161 436)" fill="#A46C00"/>
<rect x="838.161" y="436" width="161.591" height="13.07" transform="rotate(90 838.161 436)" fill="#A46C00"/>
<rect x="838.161" y="436" width="161.591" height="13.07" transform="rotate(90 838.161 436)" fill="#A46C00"/>
<rect x="838.161" y="436" width="161.591" height="13.07" transform="rotate(90 838.161 436)" fill="#A46C00"/>
<rect x="813.328" y="436" width="161.591" height="13.07" transform="rotate(90 813.328 436)" fill="#A46C00"/>
<rect x="813.328" y="436" width="161.591" height="13.07" transform="rotate(90 813.328 436)" fill="#A46C00"/>
<rect x="813.328" y="436" width="161.591" height="13.07" transform="rotate(90 813.328 436)" fill="#A46C00"/>
<rect x="813.328" y="436" width="161.591" height="13.07" transform="rotate(90 813.328 436)" fill="#A46C00"/>
<rect x="174.204" y="456.435" width="267.935" height="84.9551" rx="6.53501" fill="#DC901B"/>
<rect x="174.204" y="566.223" width="267.935" height="16.991" rx="6.53501" fill="#2F2F2F"/>
<rect x="194.961" y="473.961" width="50.079" height="17.079" rx="8.5395" fill="#F74920" stroke="black" stroke-width="3.92101"/>
<rect x="194.961" y="506.961" width="50.079" height="17.079" rx="8.5395" fill="#118A09" stroke="black" stroke-width="3.92101"/>
<rect x="171.59" y="659.02" width="691.404" height="10.456" fill="#F88A33"/>
<rect x="265" y="472" width="155" height="54" rx="3.92101" fill="#383838"/>
<path d="M276 512.406V487.246H301.16V490.84H283.189V498.029H297.566V501.623H283.189V508.811H301.16V512.406H276ZM308.348 512.406V487.246H315.537V508.811H329.914V512.406H308.348ZM333.508 512.406V487.246H358.668V490.84H340.697V498.029H355.074V501.623H340.697V508.811H358.668V512.406H333.508ZM369.451 512.406V508.811H365.856V505.217H362.262V494.434H365.856V490.84H369.451V487.246H383.828V490.84H387.422V494.434H380.233V490.84H373.045V494.434H369.451V505.217H373.045V508.811H380.233V505.217H387.422V508.811H383.828V512.406H369.451ZM401.799 512.406V490.84H394.61V487.246H416.176V490.84H408.987V512.406H401.799Z" fill="#118A09"/>
<defs>
<filter id="filter0_d_1_175" x="488.925" y="282.337" width="282.846" height="304.363" filterUnits="userSpaceOnUse" color-interpolation-filters="sRGB">
<feFlood flood-opacity="0" result="BackgroundImageFix"/>
<feColorMatrix in="SourceAlpha" type="matrix" values="0 0 0 0 0 0 0 0 0 0 0 0 0 0 0 0 0 0 127 0" result="hardAlpha"/>
<feOffset dy="5.22801"/>
<feGaussianBlur stdDeviation="5.88151"/>
<feComposite in2="hardAlpha" operator="out"/>
<feColorMatrix type="matrix" values="0 0 0 0 0 0 0 0 0 0 0 0 0 0 0 0 0 0 0.25 0"/>
<feBlend mode="normal" in2="BackgroundImageFix" result="effect1_dropShadow_1_175"/>
<feBlend mode="normal" in="SourceGraphic" in2="effect1_dropShadow_1_175" result="shape"/>
</filter>
</defs>
</svg>
